{"title":"Fathers Day 2011 DvDScr XviD Feel-Free","uid":6988748,"size":1088459147,"categoryP":"video","categoryS":"movies","magnet":"?xt=urn:btih:f48b8f02e978e107695cb34a9572a3e275b03291&amp;dn=Fathers+Day+2011+DvDScr+XviD+Feel-Free&amp;tr=udp%3A%2F%2Ftracker.openbittorrent.com%3A80&amp;tr=udp%3A%2F%2Fopen.demonii.com%3A1337&amp;tr=udp%3A%2F%2Ftracker.coppersurfer.tk%3A6969&amp;tr=udp%3A%2F%2Fexodus.desync.com%3A6969","seeders":1,"leechers":0,"uploader":"HeroMaster","files":-1,"time":1327645374,"description":"Fathers Day 2011 DvDScr XviD Feel-Free\n\nGenre: Action | Comedy | Horror\nLanguage:English\nIMDb:http://www.imdb.com/title/tt1727261/\nSource:DVDScr MKV P2P Thanks!\n\nFormat : AVI\nFormat/Info : Audio Video Interleave\nFile size : 1.01 GiB\nDuration : 1h 40mn\nOverall bit rate : 1 442 Kbps\n\nVideo\nID : 0\nFormat : MPEG-4 Visual\nFormat profile : Advanced Simple@L5\nFormat settings, BVOP : 1\nFormat settings, QPel : No\nFormat settings, GMC : No warppoints\nFormat settings, Matrix : Default (H.263)\nCodec ID : XVID\nCodec ID/Hint : XviD\nDuration : 1h 40mn\nBit rate : 1 241 Kbps\nWidth : 640 pixels\nHeight : 360 pixels\nDisplay aspect ratio : 16:9\nFrame rate : 23.976 fps\nColor space : YUV\nChroma subsampling : 4:2:0\nBit depth : 8 bits\nScan type : Progressive\nCompression mode : Lossy\nBits/(Pixel*Frame) : 0.225\nStream size : 892 MiB (86%)\nWriting library : XviD 1.2.1 (UTC 2008-12-04)\n\nAudio\nID : 1\nFormat : AC-3\nFormat/Info : Audio Coding 3\nMode extension : CM (complete main)\nCodec ID : 2000\nDuration : 1h 40mn\nBit rate mode : Constant\nBit rate : 192 Kbps\nChannel(s) : 2 channels\nChannel positions : Front: L R\nSampling rate : 48.0 KHz\nBit depth : 16 bits\nCompression mode : Lossy\nStream size : 138 MiB (13%)\nAlignment : Aligned on interleaves\nInterleave, duration : 42 ms (1.00 video frame)\nInterleave, preload duration : 512 ms\n\n\nPoster:\n\n &lt;a href=&quot;\nhttp://i.imgur.com/31zC5.jpg&quot; rel=&quot;nofollow&quot; target=&quot;_NEW&quot;&gt;\nhttp://i.imgur.com/31zC5.jpg&lt;/a&gt;\n\n\nScreens:\n\n &lt;a href=&quot;\nhttp://i.imgur.com/Ak0gB.png&quot; rel=&quot;nofollow&quot; target=&quot;_NEW&quot;&gt;\nhttp://i.imgur.com/Ak0gB.png&lt;/a&gt;\n\n &lt;a href=&quot;\nhttp://i.imgur.com/hC13u.png&quot; rel=&quot;nofollow&quot; target=&quot;_NEW&quot;&gt;\nhttp://i.imgur.com/hC13u.png&lt;/a&gt;\n\n &lt;a href=&quot;\nhttp://i.imgur.com/uN1tL.png&quot; rel=&quot;nofollow&quot; target=&quot;_NEW&quot;&gt;\nhttp://i.imgur.com/uN1tL.png&lt;/a&gt;\n\n\nENJOY!","torrent":{"xt":"urn:btih:f48b8f02e978e107695cb34a9572a3e275b03291","amp;dn":"Fathers+Day+2011+DvDScr+XviD+Feel-Free","amp;tr":["udp%3A%2F%2Ftracker.openbittorrent.com%3A80","udp%3A%2F%2Fopen.demonii.com%3A1337","udp%3A%2F%2Ftracker.coppersurfer.tk%3A6969","udp%3A%2F%2Fexodus.desync.com%3A6969"],"infoHash":"f48b8f02e978e107695cb34a9572a3e275b03291","infoHashBuffer":{"type":"Buffer","data":[244,139,143,2,233,120,225,7,105,92,179,74,149,114,163,226,117,176,50,145]},"announce":[],"urlList":[]}}